<mxfile host="app.diagrams.net" modified="2023-10-07T07:44:42.944Z" agent="Mozilla/5.0 (Windows NT 10.0; Win64; x64) AppleWebKit/537.36 (KHTML, like Gecko) Chrome/117.0.0.0 Safari/537.36 Edg/117.0.2045.41" version="21.8.0" etag="fZZ6qITkdqM_Ycjbm9KJ" type="github">
  <diagram name="第 1 页" id="Di3auF3SZEMwd-W087qs">
    <mxGraphModel>
      <root>
        <mxCell id="0" />
        <mxCell id="1" parent="0" />
      </root>
    </mxGraphModel>
  </diagram>
</mxfile>
